<?xml version="1.0" encoding="UTF-8" standalone="no"?>
<!DOCTYPE svg PUBLIC "-//W3C//DTD SVG 1.1//EN"
 "http://www.w3.org/Graphics/SVG/1.1/DTD/svg11.dtd">
<!-- Generated by graphviz version 2.43.0 (0)
 -->
<!-- Title: %3 Pages: 1 -->
<svg width="507pt" height="441pt"
 viewBox="0.00 0.00 507.00 441.00" xmlns="http://www.w3.org/2000/svg" xmlns:xlink="http://www.w3.org/1999/xlink">
<g id="graph0" class="graph" transform="scale(1 1) rotate(0) translate(4 437)">
<title>%3</title>
<polygon fill="white" stroke="transparent" points="-4,4 -4,-437 503,-437 503,4 -4,4"/>
<!-- Episode -->
<g id="node1" class="node">
<title>Episode</title>
<polygon fill="none" stroke="black" points="178.5,-433 29.5,-433 29.5,-397 178.5,-397 178.5,-433"/>
<text text-anchor="middle" x="104" y="-411.3" font-family="Times,serif" font-size="14.00">Prompted Episode</text>
</g>
<!-- Eval1 -->
<g id="node2" class="node">
<title>Eval1</title>
<polygon fill="none" stroke="black" points="194.5,-360 13.5,-360 13.5,-324 194.5,-324 194.5,-360"/>
<text text-anchor="middle" x="104" y="-338.3" font-family="Times,serif" font-size="14.00">Evaluation (H/T/S/P/M)</text>
</g>
<!-- Episode&#45;&gt;Eval1 -->
<g id="edge1" class="edge">
<title>Episode&#45;&gt;Eval1</title>
<path fill="none" stroke="black" d="M104,-396.81C104,-388.79 104,-379.05 104,-370.07"/>
<polygon fill="black" stroke="black" points="107.5,-370.03 104,-360.03 100.5,-370.03 107.5,-370.03"/>
</g>
<!-- Term -->
<g id="node3" class="node">
<title>Term</title>
<polygon fill="none" stroke="black" points="158,-273 0,-273 0,-235 158,-235 158,-273"/>
<text text-anchor="middle" x="79" y="-257.8" font-family="Times,serif" font-size="14.00">Termination</text>
<text text-anchor="middle" x="79" y="-242.8" font-family="Times,serif" font-size="14.00">(log + store failure)</text>
</g>
<!-- Eval1&#45;&gt;Term -->
<g id="edge2" class="edge">
<title>Eval1&#45;&gt;Term</title>
<path fill="none" stroke="black" d="M98.94,-323.6C95.55,-311.94 91.02,-296.34 87.13,-282.96"/>
<polygon fill="black" stroke="black" points="90.46,-281.89 84.31,-273.27 83.74,-283.85 90.46,-281.89"/>
<text text-anchor="middle" x="107.5" y="-294.8" font-family="Times,serif" font-size="14.00">Fail</text>
</g>
<!-- Survive -->
<g id="node4" class="node">
<title>Survive</title>
<polygon fill="none" stroke="black" points="329.5,-272 176.5,-272 176.5,-236 329.5,-236 329.5,-272"/>
<text text-anchor="middle" x="253" y="-250.3" font-family="Times,serif" font-size="14.00">Survival Candidate</text>
</g>
<!-- Eval1&#45;&gt;Survive -->
<g id="edge3" class="edge">
<title>Eval1&#45;&gt;Survive</title>
<path fill="none" stroke="black" d="M133.79,-323.8C157.01,-310.4 189.43,-291.69 214.6,-277.17"/>
<polygon fill="black" stroke="black" points="216.6,-280.05 223.51,-272.02 213.1,-273.99 216.6,-280.05"/>
<text text-anchor="middle" x="203.5" y="-294.8" font-family="Times,serif" font-size="14.00">Pass</text>
</g>
<!-- Rebirth -->
<g id="node5" class="node">
<title>Rebirth</title>
<polygon fill="none" stroke="black" points="345.5,-198 160.5,-198 160.5,-162 345.5,-162 345.5,-198"/>
<text text-anchor="middle" x="253" y="-176.3" font-family="Times,serif" font-size="14.00">Rebirth: Train DPO/IPO</text>
</g>
<!-- Survive&#45;&gt;Rebirth -->
<g id="edge4" class="edge">
<title>Survive&#45;&gt;Rebirth</title>
<path fill="none" stroke="black" d="M253,-235.94C253,-227.81 253,-217.88 253,-208.7"/>
<polygon fill="black" stroke="black" points="256.5,-208.44 253,-198.44 249.5,-208.44 256.5,-208.44"/>
</g>
<!-- Eval2 -->
<g id="node6" class="node">
<title>Eval2</title>
<polygon fill="none" stroke="black" points="326,-125 180,-125 180,-89 326,-89 326,-125"/>
<text text-anchor="middle" x="253" y="-103.3" font-family="Times,serif" font-size="14.00">Evaluation Report</text>
</g>
<!-- Rebirth&#45;&gt;Eval2 -->
<g id="edge5" class="edge">
<title>Rebirth&#45;&gt;Eval2</title>
<path fill="none" stroke="black" d="M253,-161.81C253,-153.79 253,-144.05 253,-135.07"/>
<polygon fill="black" stroke="black" points="256.5,-135.03 253,-125.03 249.5,-135.03 256.5,-135.03"/>
</g>
<!-- Fail -->
<g id="node7" class="node">
<title>Fail</title>
<polygon fill="none" stroke="black" points="247,-37 79,-37 79,-1 247,-1 247,-37"/>
<text text-anchor="middle" x="163" y="-15.3" font-family="Times,serif" font-size="14.00">Discard / Retry Cycle</text>
</g>
<!-- Eval2&#45;&gt;Fail -->
<g id="edge6" class="edge">
<title>Eval2&#45;&gt;Fail</title>
<path fill="none" stroke="black" d="M193.69,-88.78C185.43,-84.16 177.79,-78.33 172,-71 166.75,-64.35 164.14,-55.69 162.95,-47.4"/>
<polygon fill="black" stroke="black" points="166.42,-46.94 162.09,-37.27 159.45,-47.53 166.42,-46.94"/>
<text text-anchor="middle" x="247" y="-59.8" font-family="Times,serif" font-size="14.00">Fail gates OR HS&lt;IP</text>
</g>
<!-- Promote -->
<g id="node8" class="node">
<title>Promote</title>
<polygon fill="none" stroke="black" points="423,-38 265,-38 265,0 423,0 423,-38"/>
<text text-anchor="middle" x="344" y="-22.8" font-family="Times,serif" font-size="14.00">Promotion</text>
<text text-anchor="middle" x="344" y="-7.8" font-family="Times,serif" font-size="14.00">(active_checkpoint/)</text>
</g>
<!-- Eval2&#45;&gt;Promote -->
<g id="edge7" class="edge">
<title>Eval2&#45;&gt;Promote</title>
<path fill="none" stroke="black" d="M298.07,-88.87C306.79,-84.06 315.29,-78.15 322,-71 328.1,-64.51 332.67,-56.05 336.01,-47.9"/>
<polygon fill="black" stroke="black" points="339.38,-48.86 339.5,-38.26 332.8,-46.48 339.38,-48.86"/>
<text text-anchor="middle" x="415.5" y="-59.8" font-family="Times,serif" font-size="14.00">Pass gates AND HS≥IP</text>
</g>
</g>
</svg>
